PathFileType	4	(X/Y/Z)	Kaydara	
DataRate	CameraRate	NumFrames	NumMarkers	Units	OrigDataRate	OrigDataStartFrame	OrigNumFrames	
60.00	60.00	4	74	mm	60.00	369	151	
Frame#	Time	Z_lasi			Z_rasi			Z_rpsi			Z_lpsi			Z_fneck			Z_bneck			Z_fhead			Z_rhead			Z_lhead			Z_rshld			Z_relbtop			Z_relbext			Z_relblow			Z_rwrext			Z_rwrtop			Z_rwrlow			Z_lshld			Z_lelbext			Z_lelblow			Z_lelbtop			Z_lwrext			Z_lwrtop			Z_lwrlow			Z_rtopleg			Z_ltopleg			Z_rkneefr			Z_rkneebk			Z_rkneeis			Z_lkneefr			Z_lknssbk			Z_lkneeis			Z_rankfr			Z_rankis			Z_rankbk			Z_lankfr			Z_lankbk			Z_lankis			A_lasi			A_rasi			A_rpsi			A_lpsi			A_fneck			A_bneck			A_fhead			A_rhead			A_lhead			A_rshld			A_relbtop			A_relbext			A_relblow			A_rwrext			A_rwrtop			A_rwrlow			A_lshld			A_lelbext			A_lelblow			A_lelbtop			A_lwrext			A_lwrtop			A_lwrlow			A_rtopleg			A_ltopleg			A_rkneefr			A_rkneebk			A_rkneeis			A_lkneefr			A_lknssbk			A_lkneeis			A_rankfr			A_rankis			A_rankbk			A_lankfr			A_lankbk			A_lankis			
		X1	Y1	Z1	X2	Y2	Z2	X3	Y3	Z3	X4	Y4	Z4	X5	Y5	Z5	X6	Y6	Z6	X7	Y7	Z7	X8	Y8	Z8	X9	Y9	Z9	X10	Y10	Z10	X11	Y11	Z11	X12	Y12	Z12	X13	Y13	Z13	X14	Y14	Z14	X15	Y15	Z15	X16	Y16	Z16	X17	Y17	Z17	X18	Y18	Z18	X19	Y19	Z19	X20	Y20	Z20	X21	Y21	Z21	X22	Y22	Z22	X23	Y23	Z23	X24	Y24	Z24	X25	Y25	Z25	X26	Y26	Z26	X27	Y27	Z27	X28	Y28	Z28	X29	Y29	Z29	X30	Y30	Z30	X31	Y31	Z31	X32	Y32	Z32	X33	Y33	Z33	X34	Y34	Z34	X35	Y35	Z35	X36	Y36	Z36	X37	Y37	Z37	X38	Y38	Z38	X39	Y39	Z39	X40	Y40	Z40	X41	Y41	Z41	X42	Y42	Z42	X43	Y43	Z43	X44	Y44	Z44	X45	Y45	Z45	X46	Y46	Z46	X47	Y47	Z47	X48	Y48	Z48	X49	Y49	Z49	X50	Y50	Z50	X51	Y51	Z51	X52	Y52	Z52	X53	Y53	Z53	X54	Y54	Z54	X55	Y55	Z55	X56	Y56	Z56	X57	Y57	Z57	X58	Y58	Z58	X59	Y59	Z59	X60	Y60	Z60	X61	Y61	Z61	X62	Y62	Z62	X63	Y63	Z63	X64	Y64	Z64	X65	Y65	Z65	X66	Y66	Z66	X67	Y67	Z67	X68	Y68	Z68	X69	Y69	Z69	X70	Y70	Z70	X71	Y71	Z71	X72	Y72	Z72	X73	Y73	Z73	X74	Y74	Z74	

19	6.133	-285.55891	1079.30817	694.61967	-322.89818	1090.77789	491.45855	-150.01848	1114.29039	421.31454	-96.89495	1096.07346	660.48050	-272.53685	1454.09515	578.65788	-152.06751	1507.81723	589.03778	-304.01167	1677.04056	508.02795	-142.61304	1629.30801	504.30695	-198.20654	1652.38266	639.26628	-211.89194	1438.07739	379.88838	-172.53214	1116.94069	297.66279	-162.20472	1097.40364	354.75269	-244.65891	1132.89284	319.73394	-296.93319	902.17758	281.06443	-334.14589	921.39099	299.89918	-321.38924	914.96620	341.70395	-164.61195	1442.02194	771.12076	-127.54912	1126.56555	775.45525	-185.81409	1151.11511	838.93936	-117.19606	1146.74362	843.26103	-272.26793	902.35085	829.49379	-259.63539	894.26788	874.25056	-214.49430	885.95543	864.45129	-200.20351	927.99210	369.45587	-201.03327	891.39236	734.04655	-260.43203	422.17838	406.12022	-189.01222	454.97578	360.53467	-200.07011	431.37920	482.81017	-227.19297	444.67064	678.77197	-120.89665	474.18278	671.07773	-212.38298	443.37105	587.03884	-208.64677	182.04348	377.96890	-187.10915	176.33396	440.93189	-132.21321	177.89635	372.96371	-156.16356	162.67483	670.62210	-98.14753	167.97926	617.26692	-175.61821	173.92548	600.64365	-1004.40552	1035.96153	469.36207	-989.53117	1041.15440	628.67214	-1146.97227	1036.69983	652.66365	-1127.74269	1042.72614	469.92844	-1065.15862	1382.52213	564.90200	-1204.95827	1408.48038	555.69111	-1013.65479	1594.74594	560.81219	-1157.02850	1562.19772	650.36011	-1160.98457	1553.31070	487.48310	-1140.36034	1348.92563	744.93263	-1113.87230	1056.44241	774.74091	-1174.67979	1048.20518	752.46422	-1111.63185	1045.94582	716.73195	-1082.68082	810.29816	799.13216	-1041.34315	822.24861	784.06021	-1044.64142	823.64487	748.80638	-1112.94380	1352.21588	387.33959	-1135.15091	1040.61348	371.52771	-1065.98534	1051.85936	389.16706	-1094.75296	1048.74687	343.37322	-1034.33640	825.97290	378.35262	-1039.78371	826.14197	337.59968	-996.01471	838.08388	345.11856	-1086.97823	875.78735	731.01624	-1060.90828	891.63300	392.51232	-1036.80717	454.18980	635.48737	-1141.30508	483.65429	685.41153	-1127.85423	484.73938	566.47572	-1024.03984	467.55219	509.71001	-1107.05589	478.40282	413.14034	-1131.12984	477.74769	537.17472	-1099.65256	164.39537	658.46764	-1136.14044	161.30592	594.51515	-1179.98619	151.06690	665.74059	-1070.05188	165.87255	458.42796	-1130.53093	166.42010	422.12620	-1130.16548	171.92249	511.03161 
20	6.150	-285.99615	1079.34387	694.34357	-323.54328	1090.50873	491.19942	-150.64863	1114.57924	420.59803	-97.34590	1096.45401	660.03578	-272.83577	1454.35333	578.79997	-152.16297	1507.39288	588.75828	-303.25993	1678.93188	511.93096	-142.17729	1630.39352	505.13088	-195.75571	1651.11557	641.39755	-212.91883	1438.53317	379.43672	-172.97298	1117.48299	296.99238	-162.40479	1098.02826	354.03378	-245.18364	1133.19267	319.13965	-296.47285	902.15691	280.62044	-333.76522	921.30356	299.53091	-320.95554	914.83795	341.25774	-164.93313	1442.19681	770.55840	-127.17926	1126.94557	775.09438	-185.58258	1151.19728	838.46985	-116.95523	1147.11349	842.88536	-270.93044	902.03781	829.24377	-258.15037	893.95752	874.12552	-212.88033	886.02928	863.93951	-200.63871	928.05054	369.18438	-200.82994	891.51947	733.77350	-260.25457	422.17758	406.19675	-188.91201	454.95281	360.52052	-199.39137	431.29627	482.55051	-226.57627	444.70158	678.56728	-120.22671	474.31660	670.61813	-211.98141	443.39497	586.91483	-208.61582	182.05093	378.01373	-186.95284	176.32355	440.90588	-132.17112	177.86001	372.96265	-156.63547	162.99757	671.04797	-98.02691	167.92582	617.22073	-175.45694	173.96191	600.62981	-1004.53430	1035.91949	469.15085	-989.56848	1041.14754	628.47805	-1147.00630	1036.70433	652.62634	-1127.80594	1042.67342	469.88346	-1065.07286	1382.54410	564.79607	-1204.90761	1408.43353	555.62748	-1013.68835	1594.82956	561.28685	-1157.08672	1561.90445	650.63187	-1160.94040	1553.50021	487.75867	-1140.07813	1348.89938	744.82903	-1113.85162	1056.42303	774.74876	-1174.65775	1048.27026	752.60468	-1111.71104	1045.92583	716.65131	-1082.84706	810.26932	799.13895	-1041.47438	822.17674	784.01665	-1044.87007	823.55553	748.74268	-1113.00766	1352.22824	387.22198	-1135.22652	1040.63698	371.38927	-1066.09177	1051.89690	389.04900	-1094.83551	1048.78265	343.23418	-1034.46953	825.93330	378.24860	-1039.83086	826.20193	337.44423	-996.06712	838.14819	345.07092	-1087.06985	875.80025	730.88440	-1061.39290	891.86958	392.38636	-1036.69861	454.21349	635.38361	-1141.18637	483.62423	685.26558	-1127.72789	484.70055	566.35777	-1024.36111	467.53059	509.72740	-1107.19673	478.39500	413.04516	-1131.23711	477.76684	537.10377	-1099.63547	164.37401	658.42194	-1136.14952	161.27773	594.45751	-1179.95636	151.05966	665.69664	-1070.09766	165.88034	458.34606	-1130.59052	166.41975	422.08275	-1130.17838	171.91057	510.97752 
21	6.167	-286.17197	1079.37218	694.03389	-324.22661	1090.42564	491.07567	-151.29080	1114.93713	419.97585	-97.71855	1096.77391	659.54628	-273.02612	1454.64188	579.05621	-152.20347	1507.13730	588.41473	-302.68871	1680.40314	515.75249	-141.91271	1631.52420	505.94818	-193.54752	1650.16937	643.06358	-213.82650	1439.11530	379.12102	-173.60167	1118.14781	296.37217	-162.84622	1098.65463	353.44101	-245.88116	1133.56155	318.80060	-296.04807	902.19269	280.13861	-333.36052	921.12221	299.08701	-320.46814	914.73282	340.64857	-165.03130	1442.19528	770.16037	-126.95690	1127.11266	774.59480	-185.55534	1151.12595	837.92610	-116.93691	1147.24159	842.58614	-269.59814	901.43509	828.89320	-256.69149	893.42209	873.86780	-211.31748	885.58372	863.79501	-201.13163	928.14896	368.93887	-200.67348	891.61240	733.54912	-259.94106	422.20753	406.21651	-188.58179	454.97047	360.42896	-199.09475	431.40701	482.64000	-225.76868	444.76143	678.22128	-119.63896	474.41528	670.25719	-211.44861	443.49419	586.62895	-208.50780	182.10489	378.04546	-186.74633	176.33472	440.87898	-132.03821	177.81286	372.89207	-156.49152	163.14312	671.04630	-97.81731	167.89276	617.09419	-175.28465	174.01796	600.60341	-1004.68918	1035.89706	469.00448	-989.63089	1041.14769	628.32275	-1147.02209	1036.71921	652.56729	-1128.03612	1042.74704	469.77974	-1064.98062	1382.53586	564.57336	-1204.83521	1408.35114	555.51918	-1013.71582	1594.98627	561.63288	-1157.24930	1561.44073	651.12343	-1160.93948	1553.72955	488.12214	-1139.68399	1348.91632	744.63425	-1113.80943	1056.44760	774.71664	-1174.69055	1048.38440	752.81113	-1111.82777	1045.93117	716.59081	-1083.07007	810.26817	799.09111	-1041.65298	822.15477	784.00085	-1045.15091	823.50502	748.66562	-1113.06808	1352.22473	387.05311	-1135.32715	1040.65224	371.21162	-1066.20972	1051.88499	388.88641	-1094.92538	1048.76419	343.06282	-1034.60037	825.94833	378.16383	-1039.88663	826.20537	337.32441	-996.15303	838.15018	345.01686	-1087.09129	875.77682	730.71152	-1061.70456	892.01668	392.10117	-1036.50497	454.22199	635.23872	-1141.03920	483.58116	685.14870	-1127.59842	484.66599	566.24928	-1024.28909	467.57305	509.52072	-1107.32315	478.38432	412.95757	-1131.33316	477.78877	537.03064	-1099.63158	164.34105	658.37341	-1136.12732	161.25700	594.43932	-1179.93958	151.06447	665.63950	-1070.13222	165.89159	458.30185	-1130.63431	166.40657	422.04918	-1130.22598	171.91303	510.95161 
22	6.183	-286.34918	1079.39140	693.95058	-324.73667	1090.47997	491.07624	-152.17290	1115.28999	419.73080	-98.05747	1097.04666	659.11461	-273.19519	1454.77905	579.37817	-152.20740	1506.74835	588.11256	-302.47288	1681.48209	519.38168	-141.78390	1632.67151	506.43745	-191.49027	1649.09439	644.68414	-214.79492	1439.68796	378.98468	-174.49638	1118.81714	295.96228	-163.31196	1099.36897	352.92740	-246.63383	1133.91045	318.65246	-295.69872	902.26692	279.59110	-332.99957	920.85182	298.68271	-319.98466	914.46472	340.27573	-164.77453	1442.12021	769.82979	-126.94070	1127.01828	774.08707	-185.56005	1150.91591	837.52342	-117.06409	1147.13455	842.08740	-268.23841	900.56870	828.71284	-255.44121	892.64336	873.65982	-210.30817	885.51979	863.41866	-201.57068	928.29834	368.73016	-200.41206	891.72302	733.22678	-259.36312	422.28653	406.21803	-188.12977	455.02415	360.33886	-199.22796	431.72028	483.08147	-225.12785	444.89906	677.94792	-119.09649	474.48658	669.99397	-210.82237	443.60924	586.21586	-208.32504	182.19193	378.11165	-186.47476	176.34451	440.85411	-131.83456	177.78870	372.84626	-156.23966	163.25384	671.00334	-97.63343	167.81664	616.99417	-175.06893	174.07925	600.54478	-1004.82994	1035.85464	468.83850	-989.73320	1041.15723	628.01090	-1147.03926	1036.74362	652.55028	-1128.10684	1042.67578	469.79336	-1064.81461	1382.54654	564.29714	-1204.70825	1408.19275	555.36068	-1013.76648	1595.19608	562.29893	-1157.36618	1560.93475	651.58768	-1160.99060	1553.95233	488.60077	-1139.53506	1349.03305	744.42039	-1113.79448	1056.54343	774.66125	-1174.83246	1048.58566	753.03940	-1111.95518	1045.97687	716.53297	-1083.43407	810.32654	799.12148	-1041.93100	822.26021	784.07066	-1045.55191	823.54790	748.67027	-1113.11508	1352.18765	386.79150	-1135.42664	1040.62370	371.02680	-1066.34399	1051.83464	388.71490	-1095.04921	1048.70834	342.90192	-1034.58145	825.96886	378.19252	-1039.97482	826.16325	337.24609	-996.24290	838.09059	344.98013	-1087.12273	875.82664	730.61058	-1061.51047	891.72859	391.88847	-1036.39412	454.26411	635.12444	-1140.89340	483.55953	684.99664	-1127.51915	484.67773	566.12572	-1024.57092	467.53872	509.57180	-1107.43042	478.38512	412.87720	-1131.31348	477.75566	536.91231	-1099.59656	164.34286	658.33023	-1136.11603	161.24138	594.38293	-1179.90723	151.08463	665.58220	-1070.20126	165.88541	458.28983	-1130.68253	166.40051	421.99749	-1130.23003	171.91603	510.90549 
